<svg fill="#00A8E1" viewBox="0 0 24 24" xmlns="http://www.w3.org/2000/svg"><path d="M12 2C6.48 2 2 6.48 2 12s4.48 10 10 10 10-4.48 10-10S17.52 2 12 2zm-3.18 13.52c-.6.34-1.28.52-2.02.52-.8 0-1.5-.2-2.1-.6-.6-.4-.9-.9-.9-1.52 0-.6.3-1.1.9-1.5.6-.4 1.3-.6 2.1-.6s1.5.2 2.1.6c.6.4.9.9.9 1.5 0 .68-.28 1.26-.82 1.62zm3.36-2.02c.6-.34 1.28-.52 2.02-.52.8 0 1.5.2 2.1.6.6.4.9.9.9 1.52 0 .6-.3 1.1-.9 1.5-.6.4-1.3.6-2.1.6s-1.5-.2-2.1-.6c-.6-.4-.9-.9-.9-1.5 0-.68.28-1.26.82-1.62zm-6.72-3.24c.34-.18.7-.28 1.08-.28.4 0 .78.1 1.08.28l.92.52V6.5h2.8v4.28l-1.8 1.04c-.6.34-1.28.52-2.02.52-.8 0-1.5-.2-2.1-.6-.6-.4-.9-.9-.9-1.52 0-.6.3-1.1.9-1.5.6-.4 1.3-.6 2.1-.6z"/></svg>