<svg fill="#E50914" viewBox="0 0 24 24" xmlns="http://www.w3.org/2000/svg"><path d="M12.022 2.002c-5.523 0-10 4.477-10 10s4.477 10 10 10 10-4.477 10-10-4.477-10-10-10zm-2.26 15.09-.64-3.32h-1.34l-.64 3.32H5.06l2.92-10h2.1l2.92 10h-2.12zm7.44-4.82c.16 0 .3-.02.44-.04.14-.02.28-.05.4-.08.14-.03.28-.08.4-.13.12-.05.25-.12.35-.2.1-.08.2-.18.28-.28.08-.1.15-.22.2-.34.05-.12.1-.25.1-.4 0-.14-.02-.28-.05-.4-.03-.12-.08-.24-.15-.34-.07-.1-.15-.2-.25-.28s-.2-.15-.33-.2-.26-.1-.4-.12c-.13-.03-.27-.05-.4-.06s-.27-.02-.4-.02h-2.5v2.84h2.5zm-1.12 2.06c.2 0 .4-.02.58-.05.18-.03.36-.08.52-.15.16-.07.3-.15.44-.25.14-.1.26-.2.38-.32.12-.12.2-.25.28-.4.08-.15.12-.3.12-.48 0-.2-.04-.38-.1-.55-.07-.17-.16-.32-.27-.45-.1-.13-.24-.24-.38-.33-.14-.09-.3-.16-.46-.22-.17-.06-.34-.1-.52-.13-.18-.03-.37-.04-.55-.04H9.5v5.04h2.8z"/></svg>