<svg fill="#1DB954" viewBox="0 0 24 24" xmlns="http://www.w3.org/2000/svg"><path d="M12 2C6.48 2 2 6.48 2 12s4.48 10 10 10 10-4.48 10-10S17.52 2 12 2zm4.14 14.1c-.2.3-.6.4-.9.2-.3-.2-.4-.6-.2-.9.2-.3.6-.4.9-.2.3.2.4.6.2.9zm1.1-2.2c-.2.3-.7.4-1 .2-.3-.2-.4-.7-.2-1 .2-.3.7-.4 1-.2.3.2.5.7.2 1zm.12-2.3c-.28.34-.8.44-1.14.16-.34-.28-.44-.8-.16-1.14.28-.34.8-.44 1.14-.16.34.28.44.8.16 1.14zM8.8 9.9c.2-.3.6-.4.9-.2.3.2.4.6.2.9-.2.3-.6.4-.9.2-.3-.2-.4-.6-.2-.9zm-1.2 2.2c-.2.3-.7.4-1 .2-.3-.2-.4-.7-.2-1 .2-.3.7-.4 1-.2.3.2.5.7.2 1zm.1 2.3c-.28.34-.8.44-1.14.16-.34-.28-.44-.8-.16-1.14.28-.34.8-.44 1.14-.16.34.28.44.8.16 1.14z"/></svg>